<svg xmlns="http://www.w3.org/2000/svg" viewBox="0 0 96 96"><defs><style>.cls-1{fill:#e1c275;}.cls-2{fill:#aeb148;}.cls-3{fill:#ce974e;}.cls-4{fill:#4fba0d;}.cls-5{fill:#f77e59;}</style></defs><title>icon</title><g id="Layer_1" data-name="Layer 1"><g id="the_good_one" data-name="the good one"><polygon class="cls-1" points="46.04 27.51 42.1 26.46 53.23 0 54.76 0.51 46.04 27.51"/><ellipse class="cls-2" cx="48" cy="16" rx="8" ry="6"/><path class="cls-3" d="M15,24H81V42H74V31H22V42H15Z"/><path class="cls-4" d="M81,46.52c0,4.13-.94,8.4-4.19,11.21S69.22,61,65.17,61c-3.12,0-6.34-.18-9.37.73C51.93,62.89,52,66.58,52,70H44c0-4.38-.51-8.44-5.71-8.94-2.5-.24-5.07,0-7.58-.06-4.72-.05-9.92-.58-13-4.65C15.27,53.07,15,48.94,15,45h7c0,3.16.25,6.55,3.42,8.15,2.12,1.07,4.64.85,6.95.85,6.47,0,14.46-.16,15.63,8,.91-7.83,8.36-8,14.57-8,2.38,0,5,.28,7.3-.55C73.59,52.1,74,48.47,74,45h7Z"/><path class="cls-5" d="M82.41,65.51C63.6,88.09,32.77,87.86,14,65.36l5-5c17.12,19.17,41.06,19.33,58.22,0Z"/><path class="cls-3" d="M15,78h7V89H74V78h7V96H15Z"/></g></g></svg>
